<?xml version="1.0" encoding="utf-8"?>
<!-- Generator: Adobe Illustrator 20.0.0, SVG Export Plug-In . SVG Version: 6.00 Build 0)  -->
<svg version="1.1" id="Layer_1" xmlns="http://www.w3.org/2000/svg" xmlns:xlink="http://www.w3.org/1999/xlink" x="0px" y="0px"
	 viewBox="0 0 250 100" style="enable-background:new 0 0 250 100;" xml:space="preserve">
<style type="text/css">
	.st0{fill:#FFFFFF;}
</style>
<g>
	<path class="st0" d="M99.4,76.2c0,0.2-0.2,0.4-0.4,0.4h-8c-0.2,0-0.4-0.2-0.4-0.4V23.9c0-0.2,0.2-0.4,0.4-0.4h8
		c0.2,0,0.4,0.2,0.4,0.4V76.2z"/>
	<path class="st0" d="M111.7,76.2c0,0.2-0.2,0.4-0.4,0.4h-8c-0.2,0-0.4-0.2-0.4-0.4V23.9c0-0.2,0.2-0.4,0.4-0.4h8
		c0.2,0,0.4,0.2,0.4,0.4V76.2z"/>
	<path class="st0" d="M65,54.3l5.7,5.7c0.2,0.2,0.4,0.2,0.6,0l14.9-14.9c0.8-0.8,1.3-2,1.3-3.1c0-1.2-0.5-2.3-1.3-3.1
		c-4.3-4.3-10-6.6-16-6.6c-6.1,0-11.8,2.4-16,6.6c-2.1,2.1-3.8,4.6-4.9,7.3C45.7,38,37.6,32.2,28.2,32.2c-5.2,0-10,1.8-13.8,4.7
		V23.9c0-0.2-0.2-0.4-0.4-0.4H6c-0.2,0-0.4,0.2-0.4,0.4v31.1c0,12.5,10.2,22.7,22.7,22.7c9.4,0,17.5-5.7,20.9-13.9
		c1.1,2.7,2.8,5.1,4.9,7.3c4.3,4.3,10,6.6,16,6.6c5.9,0,11.5-2.3,15.7-6.4c0.2-0.2,0.2-0.4,0-0.6L80.2,65c-0.2-0.2-0.4-0.2-0.6,0
		c-2.6,2.4-5.9,3.8-9.5,3.8c-3.7,0-7.2-1.4-9.8-4.1c-2.6-2.6-4.1-6.1-4.1-9.8c0-3.7,1.4-7.2,4.1-9.8c4.3-4.3,10.8-5.2,15.9-2.6
		L65,53.7C64.9,53.9,64.9,54.2,65,54.3z M28.2,68.8c-7.6,0-13.8-6.2-13.8-13.8c0-7.6,6.2-13.8,13.8-13.8c7.6,0,13.8,6.2,13.8,13.8
		C42.1,62.6,35.9,68.8,28.2,68.8z"/>
	<path class="st0" d="M137.7,41.1c3.3,0,6.5,1.2,9,3.4c0.2,0.2,0.4,0.2,0.6,0c0,0,0.1-0.1,0.1-0.1c1.1-2.4,2.6-4.7,4.3-6.6
		c0.2-0.2,0.1-0.4,0-0.6c-4-3.1-8.9-4.9-14-4.9c-12.5,0-22.7,10.2-22.7,22.7c0,12.5,10.2,22.7,22.7,22.7c5.1,0,10.1-1.8,14-4.9
		c0.2-0.2,0.2-0.4,0-0.6c-1.8-2-3.2-4.2-4.3-6.6c0,0,0-0.1-0.1-0.1c-0.2-0.2-0.4-0.2-0.6,0c-2.5,2.2-5.7,3.4-9,3.4
		c-7.6,0-13.8-6.2-13.8-13.8C123.8,47.3,130,41.1,137.7,41.1z"/>
	<path class="st0" d="M221.1,32.2c-4.4,0-8.7,1.3-12.3,3.7c-3.6-2.3-7.8-3.7-12.3-3.7c-4.4,0-8.6,1.3-12.3,3.7l0,0
		c-3.5-2.3-7.8-3.6-12.3-3.6c-12.5,0-22.7,10.2-22.7,22.7c0,12.5,10.2,22.7,22.7,22.7c12.5,0,22.7-10.2,22.7-22.7
		c0-4.7-1.4-9-3.8-12.6c1.8-0.8,3.7-1.3,5.8-1.3c7.6,0,13.8,6.2,13.8,13.8v21.4c0,0.2,0.2,0.4,0.4,0.4h8c0.2,0,0.4-0.2,0.4-0.4V54.9
		c0-4.6-1.4-8.9-3.8-12.5c1.8-0.8,3.8-1.3,5.8-1.3c7.6,0,13.8,6.2,13.8,13.8v21.4c0,0.2,0.2,0.4,0.4,0.4h8c0.2,0,0.4-0.2,0.4-0.4
		V54.9C243.7,42.4,233.5,32.2,221.1,32.2z M171.8,68.8c-7.6,0-13.8-6.2-13.8-13.8c0-7.6,6.2-13.8,13.8-13.8
		c7.6,0,13.8,6.2,13.8,13.8C185.6,62.6,179.4,68.8,171.8,68.8z"/>
</g>
</svg>
